<svg width="41" height="41" viewBox="0 0 41 41" xmlns="http://www.w3.org/2000/svg" xmlns:xlink="http://www.w3.org/1999/xlink"><defs><path d="M15.935 24.77V5.54S17.467-.02 19 0c1.533.021 3.065 5.626 3.065 5.626v19.187L19.613 44h-1.226l-2.452-19.23z" id="a"/><mask id="f" x="-2" y="-2" width="10.129" height="48"><path fill="#fff" d="M13.935-2h10.129v48H13.935z"/><use xlink:href="#a"/></mask><path d="M0 28.111L13.484 15.89v8.555L1.036 32.343C.464 32.706 0 32.458 0 31.766v-3.655z" id="b"/><mask id="g" x="-2" y="-2" width="17.484" height="20.62"><path fill="#fff" d="M-2 13.889h17.484v20.62H-2z"/><use xlink:href="#b"/></mask><path d="M24.516 28.111L38 15.89v8.555l-12.448 7.899c-.572.363-1.036.115-1.036-.577v-3.655z" id="c"/><mask id="h" x="-2" y="-2" width="17.484" height="20.62"><path fill="#fff" d="M22.516 13.889H40v20.62H22.516z"/><use xlink:href="#c"/></mask><path d="M25.416 39.385L26.547 44h-3.822c-.674 0-.86-.426-.429-.934l3.12-3.68z" id="d"/><mask id="i" x="-2" y="-2" width="8.483" height="8.615"><path fill="#fff" d="M20.065 37.385h8.483V46h-8.483z"/><use xlink:href="#d"/></mask><path d="M14.384 39.385L15.515 44h-3.822c-.674 0-.86-.426-.43-.934l3.12-3.68z" id="e"/><mask id="j" x="-2" y="-2" width="8.483" height="8.615"><path fill="#fff" d="M9.032 37.385h8.483V46H9.032z"/><use xlink:href="#e"/></mask></defs><g fill="none" fill-rule="evenodd"><g transform="rotate(45 25.828 24.828)"><use fill="#fff" xlink:href="#a"/><use stroke="#a50a09" mask="url(#f)" stroke-width="4" xlink:href="#a"/></g><g transform="rotate(45 25.828 24.828)"><use fill="#fff" xlink:href="#b"/><use stroke="#a50a09" mask="url(#g)" stroke-width="4" xlink:href="#b"/></g><g transform="scale(-1 1) rotate(-45 5.43 100.292)"><use fill="#fff" xlink:href="#c"/><use stroke="#a50a09" mask="url(#h)" stroke-width="4" xlink:href="#c"/></g><g transform="scale(-1 1) rotate(-45 -1.523 83.508)"><use fill="#fff" xlink:href="#d"/><use stroke="#a50a09" mask="url(#i)" stroke-width="4" xlink:href="#d"/></g><g transform="rotate(45 25.828 24.828)"><use fill="#fff" xlink:href="#e"/><use stroke="#a50a09" mask="url(#j)" stroke-width="4" xlink:href="#e"/></g></g></svg>