<svg width="52" height="31" viewBox="0 0 52 31" xmlns="http://www.w3.org/2000/svg" xmlns:xlink="http://www.w3.org/1999/xlink"><defs><path d="M6 9l-.05-4c.049-1.334-.109-2 1-2l23.8.029c1.032 0 1.394.133 1.789 1.008l2.669 6.873 9.794.087S46.84 11.131 47 12c.115 2.449-.009 8-.009 8-.071 1.234-1.018 1-1.018 1l-3.39-6-10.111.091L28.727 21h-5.774l-3.381-5.892a.061.061 0 0 0-.018-.017l-10.275-.09c-.004-.001-.01.003-.017.016 0 0-3.203 5.982-3.252 5.983C6.01 18.078 6 9 6 9z" id="a"/><mask id="f" x="-2" y="-2" width="45.098" height="22.018"><path fill="#fff" d="M3.951 1h45.098v22.018H3.951z"/><use xlink:href="#a"/></mask><circle id="b" cx="2.5" cy="2.5" r="2.5"/><mask id="g" x="-3" y="-3" width="11" height="11"><path fill="#fff" d="M-3-3H8V8H-3z"/><use xlink:href="#b"/></mask><circle id="c" cx="25.5" cy="2.5" r="2.5"/><mask id="h" x="-3" y="-3" width="11" height="11"><path fill="#fff" d="M20-3h11V8H20z"/><use xlink:href="#c"/></mask><path d="M6 .108C6 .048 6.041 0 6.092 0h25.39l-.244 1.023c-.13.54-.69.977-1.23.977H6.091C6.04 2 6 1.95 6 1.892V.108z" id="d"/><mask id="i" x="-2" y="-2" width="29.482" height="6"><path fill="#fff" d="M4-2h29.482v6H4z"/><use xlink:href="#d"/></mask><path id="e" d="M6 4h3v5H6z"/><mask id="j" x="-2" y="-2" width="7" height="9"><path fill="#fff" d="M4 2h7v9H4z"/><use xlink:href="#e"/></mask></defs><g fill="none" fill-rule="evenodd"><g transform="translate(0 2)"><use fill="#fff" xlink:href="#a"/><use stroke="#a50a09" mask="url(#f)" stroke-width="4" xlink:href="#a"/></g><path d="M4.986 12.95c-.629 0-1.138-.447-1.138-1 0-.553.51-1 1.138-1h32.876c.629 0 1.138.447 1.138 1 0 .553-.51 1-1.138 1H4.986z" fill="#a50a09"/><path d="M3 20H1c-.702 0-1-.373-1-.91v-8.18c0-.537.298-.91 1-.91h2c.702 0 1 .373 1 .91v8.18c0 .537-.298.91-1 .91z" fill="#a50a09"/><g transform="translate(12 23)"><use fill="#F8F8F8" xlink:href="#b"/><use stroke="#a50a09" mask="url(#g)" stroke-width="6" xlink:href="#b"/></g><g transform="translate(12 23)"><use fill="#F8F8F8" xlink:href="#c"/><use stroke="#a50a09" mask="url(#h)" stroke-width="6" xlink:href="#c"/></g><path fill="#F8F8F8" opacity=".9" d="M6 6h17v5H6z"/><path fill="#F8F8F8" d="M25 5h7.158l2.307 6H25z"/><path fill="#a50a09" d="M23 6h2v6h-2z"/><g fill="#a50a09"><path d="M50 23h-4v2h6v-9h-2v7z"/></g><g transform="matrix(1 0 0 -1 0 4)"><use fill="#fff" xlink:href="#d"/><use stroke="#a50a09" mask="url(#i)" stroke-width="4" xlink:href="#d"/></g><g transform="translate(0 2)"><use fill="#fff" xlink:href="#e"/><use stroke="#a50a09" mask="url(#j)" stroke-width="4" xlink:href="#e"/></g></g></svg>