<svg width="42" height="48" viewBox="0 0 42 48" xmlns="http://www.w3.org/2000/svg" xmlns:xlink="http://www.w3.org/1999/xlink"><defs><path d="M9.265 7.67C8.895 3.433 12.045 0 16.29 0h1.268c4.25 0 7.396 3.423 7.024 7.67l-.617 7.037c-.37 4.236-4.08 7.143-6.972 6.697-3.556.537-6.738-2.45-7.11-6.697L9.265 7.67z" id="a"/><mask id="d" x="-2" y="-2" width="19.385" height="25.467"><path fill="#fff" d="M7.231-2h19.385v25.467H7.231z"/><use xlink:href="#a"/></mask><path id="b" d="M0 5.114l2.051-1.025v14.345H0z"/><mask id="e" x="-2" y="-2" width="6.051" height="18.345"><path fill="#fff" d="M-2 2.089h6.051v18.345H-2z"/><use xlink:href="#b"/></mask><ellipse id="c" cx="7.692" cy="7.667" rx="7.692" ry="7.667"/><mask id="f" x="-2" y="-2" width="19.385" height="19.333"><path fill="#fff" d="M-2-2h19.385v19.333H-2z"/><use xlink:href="#c"/></mask></defs><g fill="none" fill-rule="evenodd"><path d="M25.349 25.511H7.179a3.069 3.069 0 0 0-3.076 3.074v12.252a3.074 3.074 0 0 0 3.075 3.074H22.05a12.771 12.771 0 0 1-1.258-2.044H7.178c-.566 0-1.024-.46-1.024-1.03V28.585c0-.569.45-1.03 1.024-1.03h15.73a12.875 12.875 0 0 1 2.44-2.044z" fill="#a50a09"/><path d="M22.907 27.556H7.164c-.56 0-1.01.45-1.01 1.006V40.86c0 .563.452 1.007 1.01 1.007h13.628a12.691 12.691 0 0 1-1.305-5.623 12.71 12.71 0 0 1 3.42-8.688z" fill="#fff"/><path d="M20.792 41.867H2.132s-.08-1.98.785-3.904c2.23-3.407 3.172-4.998 5.684-5.612 2.511-.614 4.514-2.137 5.098-3.561.017-.04.833-1.749.492-3.394-.352-1.694 5.807-1.343 5.556 0-.252 1.342-.143 2.152.398 3.394.155.355.529.736 1.028 1.116a12.687 12.687 0 0 0-1.686 6.338c0 2.018.47 3.926 1.305 5.623z" fill="#fff"/><path d="M22.31 28.245c-.159-.118-.258-.211-.283-.27-.388-.889-.436-1.285-.264-2.205.305-1.63-.714-2.586-2.125-3.1-.751-.273-1.693-.428-2.645-.456-1-.03-1.956.078-2.73.35-1.413.498-2.419 1.62-2.081 3.246.006.027.01.054.015.082.068.432-.001.978-.171 1.53a4.578 4.578 0 0 1-.226.594c-.332.81-1.857 1.901-3.688 2.35-1.766.43-3.053 1.269-4.27 2.7-.692.815-.951 1.195-2.643 3.78l-.089.135-.066.147-.087.2c-.4.946-.646 1.936-.776 2.93a10.945 10.945 0 0 0-.098 1.691l.08 1.962H22.05a12.771 12.771 0 0 1-1.258-2.044H2.132s-.08-1.98.785-3.904c2.23-3.407 3.172-4.998 5.684-5.612 2.511-.614 4.514-2.137 5.098-3.561.017-.04.833-1.749.492-3.394-.352-1.694 5.807-1.343 5.556 0-.252 1.342-.143 2.152.398 3.394.155.355.529.736 1.028 1.116.336-.584.716-1.14 1.137-1.661z" fill="#a50a09"/><g transform="translate(0 2)"><use fill="#fff" xlink:href="#a"/><use stroke="#a50a09" mask="url(#d)" stroke-width="4" xlink:href="#a"/></g><g><g transform="translate(9.23 26.533)"><use fill="#fff" xlink:href="#b"/><use stroke="#a50a09" mask="url(#e)" stroke-width="4" xlink:href="#b"/></g><path d="M22.331 28.219l-1.818-.909v3.918c.467-1.089 1.081-2.1 1.818-3.01zm3.07 18.792h-4.888v-5.75a12.774 12.774 0 0 0 2.051 3.288v.418h.375c.73.779 1.557 1.467 2.462 2.044z" fill="#a50a09"/><path d="M22.564 44.55v.417h.375a12.868 12.868 0 0 1-.375-.418z" fill="#FFF"/></g><g><g transform="translate(24.615 28.578)"><use fill="#FFDED9" xlink:href="#c"/><use stroke="#CD4F3C" mask="url(#f)" stroke-width="4" xlink:href="#c"/></g><path d="M32.32 35.96c-1.493-1.415-2.828-2.51-2.828-2.51l2.684 2.647a295.16 295.16 0 0 0-2.844 2.763l2.857-2.75 3.186 3.143c-.797-1.063-1.96-2.256-3.043-3.282l2.865-2.758s-1.347 1.277-2.877 2.746z" stroke="#CD4F3C" stroke-width="2.308" stroke-linecap="round" stroke-linejoin="round"/></g></g></svg>