<svg width="40" height="43" viewBox="0 0 40 43" xmlns="http://www.w3.org/2000/svg" xmlns:xlink="http://www.w3.org/1999/xlink"><defs><circle id="a" cx="4.5" cy="4.5" r="4.5"/><mask id="e" x="-2" y="-2" width="13" height="13"><path fill="#fff" d="M-2-2h13v13H-2z"/><use xlink:href="#a"/></mask><circle id="b" cx="4.5" cy="4.5" r="4.5"/><mask id="f" x="-2" y="-2" width="13" height="13"><path fill="#fff" d="M-2-2h13v13H-2z"/><use xlink:href="#b"/></mask><circle id="c" cx="7.5" cy="7.5" r="7.5"/><mask id="g" x="-2" y="-2" width="19" height="19"><path fill="#fff" d="M-2-2h19v19H-2z"/><use xlink:href="#c"/></mask><circle id="d" cx="12.5" cy="4.5" r="4.5"/><mask id="h" x="-2" y="-2" width="13" height="13"><path fill="#fff" d="M6-2h13v13H6z"/><use xlink:href="#d"/></mask></defs><g fill="none" fill-rule="evenodd"><path d="M18.045 32h-6.05c-.54 0-.995.447-.995.999v1.002c0 .556.446.999.995.999h6.186a11.063 11.063 0 0 1-.136-3z" fill="#a50a09"/><g transform="translate(2 29)"><use fill="#fff" xlink:href="#a"/><use stroke="#a50a09" mask="url(#e)" stroke-width="4" xlink:href="#a"/></g><g transform="translate(2 2)"><rect fill="#a50a09" x="9" y="3" width="22" height="3" rx="1"/><use fill="#fff" xlink:href="#b"/><use stroke="#a50a09" mask="url(#f)" stroke-width="4" xlink:href="#b"/></g><g><g transform="translate(23 26)"><use fill="#FFDED9" xlink:href="#c"/><use stroke="#CD4F3C" mask="url(#g)" stroke-width="4" xlink:href="#c"/></g><path d="M30.512 33.221c-1.456-1.384-2.757-2.456-2.757-2.456l2.617 2.59c-.965.932-1.99 1.926-2.773 2.704l2.785-2.691 3.107 3.076c-.777-1.04-1.912-2.207-2.967-3.211l2.793-2.699s-1.313 1.25-2.805 2.687z" stroke="#CD4F3C" stroke-width="2.308" stroke-linecap="round" stroke-linejoin="round"/></g><g transform="translate(3 16)"><rect fill="#a50a09" y="3" width="30" height="3" rx="1"/><use fill="#fff" xlink:href="#d"/><use stroke="#a50a09" mask="url(#h)" stroke-width="4" xlink:href="#d"/></g></g></svg>