<svg width="52" height="43" viewBox="0 0 52 43" xmlns="http://www.w3.org/2000/svg" xmlns:xlink="http://www.w3.org/1999/xlink"><defs><path d="M11.899 16.845c.168-.91-3.973-1.147-3.736 0 .23 1.115-.32 2.271-.33 2.299-.394.964-1.74 1.995-3.43 2.411-1.688.416-2.322 1.494-3.821 3.801C0 26.66.055 28 .055 28h19.89s-.087-1.689-.517-2.86c-.685-1.919-2.214-3.068-3.472-3.585-1.257-.516-3.425-1.57-3.79-2.411-.364-.842-.436-1.39-.267-2.3z" id="a"/><mask id="c" x="-2" y="-2" width="23.891" height="15.929"><path fill="#fff" d="M-1.946 14.071h23.891V30H-1.946z"/><use xlink:href="#a"/></mask><path d="M5.005 4.983C4.773 2.231 6.828 0 9.585 0h.823c2.761 0 4.811 2.236 4.58 4.983l-.435 5.189c-.231 2.752-2.657 4.983-4.556 4.983-2.285 0-4.326-2.236-4.556-4.983l-.436-5.189z" id="b"/><mask id="d" x="-2" y="-2" width="14.019" height="19.155"><path fill="#fff" d="M2.987-2h14.019v19.155H2.987z"/><use xlink:href="#b"/></mask></defs><g fill="none" fill-rule="evenodd"><path d="M42.4 21.569c.562.828 1.754 1.631 3.196 1.986 1.689.416 2.323 1.494 3.822 3.801C50 28.66 49.945 30 49.945 30h-5.459c-1.088-1.173-2.34-1.936-3.934-2.329a2.533 2.533 0 0 1-.817-.36 1.073 1.073 0 0 1-.086-.068c.042.048.09.117.14.21.029.057.056.115.083.182-.06-.137-.059-.136-.073-.181-.014.018-.02.058-.032.132a4.906 4.906 0 0 0 .096-1.038c1.268-1.33 2.17-3.069 2.536-4.98z" fill="#fff"/><path d="M42.846 16.931c.717.482 1.172 1.242.945 2.345-.03.188.006.47.096.763.042.138.078.226.133.35.14.345 1 .965 2.054 1.224 1.321.326 2.299.966 3.197 2.031.491.582.666.84 1.824 2.623l.086.132.064.143.064.148c.291.696.47 1.418.564 2.142.061.469.079.873.072 1.186l-.001.062-.078 1.92h-6.209c-.715-1.1-1.049-1.607-1.34-2h5.628s.054-1.34-.527-2.644c-1.5-2.307-2.133-3.385-3.822-3.8-1.442-.356-2.634-1.16-3.197-1.987.067-.35.116-.704.146-1.063l.3-3.575z" fill="#a50a09"/><path d="M35.024 6.02C35.282 3.732 37.162 2 39.592 2h.823c2.757 0 4.812 2.231 4.58 4.983l-.436 5.189c-.12 1.434-.734 2.73-1.62 3.64l.042-.494c.41-4.88-3.16-8.976-7.957-9.298z" fill="#fff"/><path d="M33.015 6.018C33.283 2.631 36.048 0 39.592 0h.823c3.929 0 6.902 3.233 6.573 7.15l-.436 5.189c-.223 2.664-1.74 5.01-3.835 6.125l.139-1.65c.93-.974 1.58-2.394 1.703-3.971l.436-5.531C45.227 4.378 43.172 2 40.415 2h-.823c-2.342 0-4.173 1.715-4.534 4.023A9.098 9.098 0 0 0 34.415 6h-.823a9.11 9.11 0 0 0-.577.018z" fill="#a50a09"/><path d="M19.438 9.577a8.463 8.463 0 0 0-2.4-2.265l-.027-.329C16.781 4.236 18.831 2 21.591 2h.824c2.757 0 4.812 2.231 4.58 4.983l-.191 2.28c-.08.102-.16.207-.235.314A8.772 8.772 0 0 0 23.415 9h-.823c-1.12 0-2.183.204-3.154.577z" fill="#fff"/><path d="M28.975 7.308l.013-.157C29.318 3.233 26.344 0 22.415 0h-.823c-3.67 0-6.504 2.82-6.596 6.38.719.22 1.394.528 2.014.914C16.789 4.374 18.836 2 21.592 2h.823c2.757 0 4.812 2.378 4.58 5.312l-.15 1.897a8.464 8.464 0 0 1 2.13-1.901z" fill="#a50a09"/><g><path d="M15.015 26.085c-2.391-.074-4.98.143-4.852.76.23 1.115-.32 2.271-.33 2.299-.394.964-1.74 1.995-3.43 2.411-1.688.416-2.322 1.494-3.821 3.801C2 36.66 2.055 38 2.055 38h7.412c.104-.363.23-.725.38-1.083l.082-.19.128-.286.17-.264c1.224-1.883 1.402-2.146 1.973-2.822 1.161-1.376 2.498-2.253 4.248-2.684a2.533 2.533 0 0 0 .817-.36c.055-.04.086-.068.086-.068-.042.048-.09.117-.14.21-.029.057-.056.115-.083.182.06-.137.059-.136.073-.181.014.018.02.058.032.132l.012.066a5.605 5.605 0 0 1-.052-.292 4.906 4.906 0 0 1-.056-.812 9.84 9.84 0 0 1-2.122-3.463z" fill="#fff"/><path d="M14.518 24.074c-1.263-.016-2.458.044-3.367.182-.586.089-1.074.21-1.49.396-.99.443-1.729 1.279-1.452 2.624.03.188-.006.47-.096.763a2.676 2.676 0 0 1-.133.35c-.14.345-1 .965-2.054 1.224-1.321.326-2.299.966-3.197 2.031-.491.582-.666.84-1.824 2.623l-.086.132-.064.143-.064.148a8.283 8.283 0 0 0-.564 2.142c-.061.469-.079.873-.072 1.186l.001.062L.134 40h8.962a10.708 10.708 0 0 1 .37-2H2.056s-.054-1.34.527-2.644c1.5-2.307 2.133-3.385 3.822-3.8 1.689-.417 3.035-1.448 3.428-2.412.011-.028.56-1.184.33-2.3-.126-.616 2.462-.833 4.853-.759-.23-.644-.399-1.318-.497-2.011z" fill="#a50a09"/><path d="M16.133 11.86c-.827-1.137-2.176-1.86-3.756-1.86h-.76c-2.776 0-4.868 2.247-4.668 5.02 0 0 .087 2.389.564 5.153.968 3.844 1.57 4.807 4.687 4.982 4.171.079 0 0 0 0 .713.011 1.561-.39 2.32-1.068a10.14 10.14 0 0 1-.065-.58l-.436-5.189c-.21-2.489.617-4.774 2.114-6.458z" fill="#fff"/><path d="M17.642 10.522C16.451 8.984 14.575 8 12.408 8h-.823c-3.929 0-6.902 3.233-6.573 7.15l.436 5.189c.312 3.718 3.143 6.816 6.549 6.816 1.052 0 2.104-.366 3.048-.988a10.168 10.168 0 0 1-.483-1.81c-.804.543-1.735.809-2.565.809-2.285 0-4.326-1.395-4.556-4.323l-.436-5.531C6.773 12.378 8.828 10 11.585 10h.823c1.54 0 2.859.742 3.684 1.905a8.463 8.463 0 0 1 1.55-1.383z" fill="#a50a09"/></g><g><path d="M30.985 26.085c2.391-.074 4.98.143 4.852.76-.23 1.115.32 2.271.33 2.299.394.964 1.74 1.995 3.43 2.411 1.688.416 2.322 1.494 3.821 3.801C44 36.66 43.945 38 43.945 38h-7.412a9.743 9.743 0 0 0-.38-1.083l-.082-.19-.128-.286-.17-.264c-1.224-1.883-1.402-2.146-1.973-2.822-1.161-1.376-2.498-2.253-4.248-2.684a2.533 2.533 0 0 1-.817-.36 1.073 1.073 0 0 1-.086-.068c.042.048.09.117.14.21.029.057.056.115.083.182-.06-.137-.059-.136-.073-.181-.014.018-.02.058-.032.132a4.906 4.906 0 0 0 .096-1.038 9.84 9.84 0 0 0 2.122-3.463z" fill="#fff"/><path d="M31.482 24.074c1.263-.016 2.458.044 3.367.182.586.089 1.074.21 1.49.396.99.443 1.729 1.279 1.452 2.624-.03.188.006.47.096.763.042.138.078.226.133.35.14.345 1 .965 2.054 1.224 1.321.326 2.299.966 3.197 2.031.491.582.666.84 1.824 2.623l.086.132.064.143.064.148c.291.696.47 1.418.564 2.142.061.469.079.873.072 1.186l-.001.062-.078 1.92h-8.962a10.708 10.708 0 0 0-.37-2h7.411s.054-1.34-.527-2.644c-1.5-2.307-2.133-3.385-3.822-3.8-1.689-.417-3.035-1.448-3.428-2.412-.011-.028-.56-1.184-.33-2.3.126-.616-2.462-.833-4.853-.759.23-.644.399-1.318.497-2.011z" fill="#a50a09"/><path d="M29.891 11.887C30.731 10.737 32.1 10 33.702 10h.602a4.888 4.888 0 0 1 4.92 5.103l-.202 5.445c-.105 2.81-2.352 4.881-5.019 4.607-.798 0-1.713-.424-2.514-1.132.023-.17.042-.343.056-.517l.436-5.188c.208-2.475-.608-4.75-2.09-6.431z" fill="#fff"/><path d="M28.358 10.522C29.549 8.984 31.425 8 33.592 8h.823c3.929 0 6.902 3.233 6.573 7.15l-.436 5.189c-.312 3.718-3.143 6.816-6.549 6.816-1.052 0-2.104-.366-3.048-.988.174-.474.315-.965.418-1.468.523.32 1.12.478 1.758.478 2.285 0 5.198-1.406 5.428-4.334l.436-5.531c.232-2.934-1.823-5.312-4.58-5.312h-.823c-1.54 0-2.859.742-3.684 1.905a8.463 8.463 0 0 0-1.55-1.383z" fill="#a50a09"/></g><g><g transform="translate(13 13)"><use fill="#fff" xlink:href="#a"/><use stroke="#a50a09" mask="url(#c)" stroke-width="4" xlink:href="#a"/></g><g transform="translate(13 13)"><use fill="#fff" xlink:href="#b"/><use stroke="#a50a09" mask="url(#d)" stroke-width="4" xlink:href="#b"/></g></g></g></svg>