<svg width="47" height="40" viewBox="0 0 47 40" xmlns="http://www.w3.org/2000/svg" xmlns:xlink="http://www.w3.org/1999/xlink"><defs><path d="M0 2.833h22V22.34a.494.494 0 0 1-.5.494H0v-20z" id="a"/><mask id="f" x="-2" y="-2" width="26" height="24"><path fill="#fff" d="M-2 .833h26v24H-2z"/><use xlink:href="#a"/></mask><path id="b" d="M8 10.833h6v12H8z"/><mask id="g" x="-2" y="-2" width="10" height="16"><path fill="#fff" d="M6 8.833h10v16H6z"/><use xlink:href="#b"/></mask><path id="c" d="M24 15.833h11v7H24z"/><mask id="h" x="-2" y="-2" width="15" height="11"><path fill="#fff" d="M22 13.833h15v11H22z"/><use xlink:href="#c"/></mask><path d="M35 7H22l7 7h12.99c.006 0 .007-.005.007-.005S38.545 7 35 7z" id="d"/><mask id="i" x="-2" y="-2" width="24" height="11"><path fill="#fff" d="M20 5h24v11H20z"/><use xlink:href="#d"/></mask><path d="M15.225.638a1.26 1.26 0 0 1 1.55 0l14.422 11.877c.996.82.765 1.485-.525 1.485H1.328c-1.286 0-1.52-.666-.525-1.485L15.225.638z" id="e"/><mask id="j" x="-2" y="-2" width="36" height="18"><path fill="#fff" d="M-2-2h36v18H-2z"/><use xlink:href="#e"/></mask></defs><g fill="none" fill-rule="evenodd"><g transform="translate(7 15.167)"><g transform="matrix(-1 0 0 1 22 0)"><use fill="#fff" xlink:href="#a"/><use stroke="#a50a09" mask="url(#f)" stroke-width="4" xlink:href="#a"/></g><use fill="#fff" xlink:href="#b"/><use stroke="#a50a09" mask="url(#g)" stroke-width="4" xlink:href="#b"/><g transform="matrix(-1 0 0 1 59 0)"><use fill="#fff" xlink:href="#c"/><use stroke="#a50a09" mask="url(#h)" stroke-width="4" xlink:href="#c"/></g><rect fill="#a50a09" x="35" y=".833" width="2" height="24" rx="1"/></g><g transform="translate(2 2)"><use fill="#fff" xlink:href="#d"/><use stroke="#a50a09" mask="url(#i)" stroke-width="4" xlink:href="#d"/></g><g transform="translate(2 2)"><use fill="#fff" xlink:href="#e"/><use stroke="#a50a09" mask="url(#j)" stroke-width="4" xlink:href="#e"/></g></g></svg>