<svg width="45" height="38" viewBox="0 0 45 38" xmlns="http://www.w3.org/2000/svg" xmlns:xlink="http://www.w3.org/1999/xlink"><defs><path d="M9.46 4H8.406C7.35 4 6.237 5.325 5.916 6.957L.936 29.043C.45 30.676 1.423 32 3.148 32H14.47c1.714 0 2.757-1.325 2.343-2.957L13.532 17h2.171c1.381 0 2.308-1.342 2.071-2.999L16.771 7C16.534 5.343 15.488 4 14.428 4H9.682c-.037 0-.074.002-.111.005A1.271 1.271 0 0 0 9.459 4z" id="a"/><mask id="i" x="-2" y="-2" width="21" height="32"><path fill="#fff" d="M-1.189 2h21v32h-21z"/><use xlink:href="#a"/></mask><path d="M8.68 0h4.694c.047 0 .1.05.117.108l.53 1.784c.018.06-.006.108-.073.108H8.105c-.058 0-.09-.05-.073-.108l.53-1.784C8.58.048 8.627 0 8.68 0z" id="b"/><mask id="j" x="-2" y="-2" width="10" height="6"><path fill="#fff" d="M6.027-2h10v6h-10z"/><use xlink:href="#b"/></mask><path d="M8.46 4H7.406C6.35 4 5.237 5.325 4.916 6.957L.147 28.165C-.34 29.798.423 32 2.148 32H13.47c1.714 0 2.715-2.203 2.301-3.835L12.532 17h2.171c1.381 0 2.308-1.342 2.071-2.999L15.771 7C15.534 5.343 14.488 4 13.428 4H8.682c-.037 0-.074.002-.111.005A1.271 1.271 0 0 0 8.459 4z" id="c"/><mask id="k" x="-2" y="-2" width="20.808" height="32"><path fill="#fff" d="M-1.997 2h20.808v32H-1.997z"/><use xlink:href="#c"/></mask><path d="M7.68 0h4.694c.047 0 .1.05.117.108l.53 1.784c.018.06-.006.108-.073.108H7.105c-.058 0-.09-.05-.073-.108l.53-1.784C7.58.048 7.627 0 7.68 0z" id="d"/><mask id="l" x="-2" y="-2" width="10" height="6"><path fill="#fff" d="M5.027-2h10v6h-10z"/><use xlink:href="#d"/></mask><path id="e" d="M19 7h4v8h-4z"/><mask id="m" x="-2" y="-2" width="8" height="12"><path fill="#fff" d="M17 5h8v12h-8z"/><use xlink:href="#e"/></mask><ellipse id="f" cx="21" cy="15" rx="2" ry="1"/><mask id="n" x="-2" y="-2" width="8" height="6"><path fill="#fff" d="M17 12h8v6h-8z"/><use xlink:href="#f"/></mask><ellipse id="g" cx="33" cy="30" rx="8" ry="4"/><mask id="o" x="-2" y="-2" width="20" height="12"><path fill="#fff" d="M23 24h20v12H23z"/><use xlink:href="#g"/></mask><ellipse id="h" cx="9" cy="30" rx="8" ry="4"/><mask id="p" x="-2" y="-2" width="20" height="12"><path fill="#fff" d="M-1 24h20v12H-1z"/><use xlink:href="#h"/></mask></defs><g fill="none" fill-rule="evenodd"><g transform="translate(2 2)"><use fill="#fff" xlink:href="#a"/><use stroke="#a50a09" mask="url(#i)" stroke-width="4" xlink:href="#a"/></g><g transform="translate(2 2)"><use fill="#fff" xlink:href="#b"/><use stroke="#a50a09" mask="url(#j)" stroke-width="4" xlink:href="#b"/></g><g transform="matrix(-1 0 0 1 43 2)"><use fill="#fff" xlink:href="#c"/><use stroke="#a50a09" mask="url(#k)" stroke-width="4" xlink:href="#c"/></g><g transform="matrix(-1 0 0 1 43 2)"><use fill="#fff" xlink:href="#d"/><use stroke="#a50a09" mask="url(#l)" stroke-width="4" xlink:href="#d"/></g><g transform="translate(2 2)"><use fill="#fff" xlink:href="#e"/><use stroke="#a50a09" mask="url(#m)" stroke-width="4" xlink:href="#e"/></g><g transform="translate(2 2)"><use fill="#fff" xlink:href="#f"/><use stroke="#a50a09" mask="url(#n)" stroke-width="4" xlink:href="#f"/></g><g transform="translate(2 2)"><use fill="#FFF" xlink:href="#g"/><use stroke="#a50a09" mask="url(#o)" stroke-width="4" xlink:href="#g"/></g><g transform="translate(2 2)"><use fill="#FFF" xlink:href="#h"/><use stroke="#a50a09" mask="url(#p)" stroke-width="4" xlink:href="#h"/></g></g></svg>