<svg width="38" height="44" viewBox="0 0 38 44" xmlns="http://www.w3.org/2000/svg" xmlns:xlink="http://www.w3.org/1999/xlink"><defs><path d="M17.42.05a.23.23 0 0 1 .184 0L33.91 9.18a.175.175 0 0 1 .089.146v21.346c0 .053-.047.123-.089.146L17.604 39.95a.207.207 0 0 1-.183 0L.094 30.82A.174.174 0 0 1 0 30.673V9.327a.18.18 0 0 1 .094-.146L17.421.05z" id="a"/><mask id="b" x="-2" y="-2" width="38" height="44"><path fill="#fff" d="M-2-2h38v44H-2z"/><use xlink:href="#a"/></mask></defs><g transform="translate(2 2)" fill="none" fill-rule="evenodd"><use fill="#fff" xlink:href="#a"/><use stroke="#a50a09" mask="url(#b)" stroke-width="4" xlink:href="#a"/></g></svg>