<svg width="44" height="43" viewBox="0 0 44 43" xmlns="http://www.w3.org/2000/svg" xmlns:xlink="http://www.w3.org/1999/xlink"><defs><circle id="a" cx="7.5" cy="7.5" r="7.5"/><mask id="b" x="-5" y="-5" width="25" height="25"><path fill="#fff" d="M-5-5h25v25H-5z"/><use xlink:href="#a"/></mask><mask id="c" x="-2" y="-2" width="19" height="19"><path fill="#fff" d="M-2-2h19v19H-2z"/><use xlink:href="#a"/></mask></defs><g fill="none" fill-rule="evenodd"><path d="M34 5h6.003C41.106 5 42 5.89 42 7v32c0 1.105-.892 2-1.997 2H3.997A1.995 1.995 0 0 1 2 39V7c0-1.105.892-2 1.997-2H10v3.002C10 9.113 10.898 10 12.006 10h2.988C16.114 10 17 9.105 17 8.002V5h10v3.002C27 9.113 27.898 10 29.006 10h2.988C33.114 10 34 9.105 34 8.002V5z" fill="#fff"/><path d="M34 3h6.003A3.995 3.995 0 0 1 44 7v32c0 2.21-1.787 4-3.997 4H3.997A3.995 3.995 0 0 1 0 39V7c0-2.21 1.787-4 3.997-4H10v2H3.997A1.997 1.997 0 0 0 2 7v32c0 1.11.894 2 1.997 2h36.006A1.997 1.997 0 0 0 42 39V7c0-1.11-.894-2-1.997-2H34V3zm-7 0H17v2h10V3z" fill="#a50a09"/><path d="M34 5h4.993A3.005 3.005 0 0 1 42 7.997V14H2V7.997A3 3 0 0 1 5.007 5H10v3.002C10 9.113 10.898 10 12.006 10h2.988C16.114 10 17 9.105 17 8.002V5h10v3.002C27 9.113 27.898 10 29.006 10h2.988C33.114 10 34 9.105 34 8.002V5z" fill="#fff"/><path d="M34 3h4.993A5.005 5.005 0 0 1 44 7.997V16H0V7.997A5 5 0 0 1 5.007 3H10v2H5.007A3 3 0 0 0 2 7.997V14h40V7.997A3.005 3.005 0 0 0 38.993 5H34V3zm-7 0H17v2h10V3z" fill="#a50a09"/><g><g transform="translate(15 21)"><use stroke="#fff" mask="url(#b)" stroke-width="10" xlink:href="#a"/><use stroke="#a50a09" mask="url(#c)" stroke-width="4" xlink:href="#a"/></g><path d="M25.978 25.425s-2.918 3.002-4.492 5.924c-1.19-1.308-2.862-2.252-2.862-2.252" stroke="#a50a09" stroke-width="2" stroke-linecap="round" stroke-linejoin="round"/></g><g fill="#a50a09"><g transform="translate(12)"><rect width="3" height="8" rx="1.5"/><rect x="17" width="3" height="8" rx="1.5"/></g></g></g></svg>