<svg width="52" height="42" viewBox="0 0 52 42" xmlns="http://www.w3.org/2000/svg" xmlns:xlink="http://www.w3.org/1999/xlink"><defs><path d="M2.572 1.422C3.354.636 4.881 0 5.985 0h11.367c2.131 0 4.181 2.556 4.181 2.556.763.797.484 1.444-.611 1.444H1.997c-1.1 0-1.362-.634-.577-1.422l1.152-1.156z" id="a"/><mask id="b" x="-2" y="-2" width="25" height="8"><path fill="#fff" d="M-1.036-2h25v8h-25z"/><use xlink:href="#a"/></mask></defs><g fill="none" fill-rule="evenodd"><path d="M13.336 24.218L8.143 39.252A2.067 2.067 0 0 0 10.103 42H49.95c1.436 0 2.427-1.4 1.961-2.748L38.85 1.444A2.155 2.155 0 0 0 36.82 0H23.233c-.925 0-1.735.59-2.03 1.444l-.636 1.843c.564.125 1.231.308 1.92.573l.61-1.764A.146.146 0 0 1 23.232 2H36.82c.057 0 .118.043.137.096l13.06 37.808c.019.053-.012.096-.068.096H10.103c-.055 0-.086-.043-.067-.096l6.645-19.238c-.987.995-1.942 1.982-2.615 2.735l-.73.817z" fill="#a50a09"/><path d="M16.671 20.666l-6.638 19.238c-.018.053.012.096.068.096h39.798c.056 0 .086-.043.068-.096L36.922 2.096A.153.153 0 0 0 36.786 2H23.214a.146.146 0 0 0-.136.096L22.47 3.86c1.291.497 2.659 1.282 3.573 2.514 2.215 2.981 2.21 6.104 1.208 7.82-1.002 1.718-6.232 2.199-6.232 2.199s-2.247 2.154-4.347 4.273z" fill="#fff"/><g fill="#a50a09"><path d="M29 34h2v6h-2zM29 22h2v6h-2zM29 10h2v6h-2zM29 2h2v2h-2z"/></g><g><g fill="#a50a09"><path d="M10 18h2v7h-2z"/><path d="M12.08 22.107c.03-.111.03-.111.073-.28a99.254 99.254 0 0 1 1.16-4.033c.222-.71.438-1.352.643-1.913l.067-.182c.064-.171.128-.348.193-.533.18-.509.756-2.252.707-2.108.241-.715.412-1.16.562-1.447.058-.112.103-.18.12-.197-.074.076-.215.151-.424.151v-2c-.697 0-1.107.425-1.47 1.122-.212.407-.41.923-.683 1.732.043-.127-.526 1.595-.698 2.082-.061.174-.121.34-.18.498l-.073.196a46.762 46.762 0 0 0-.673 1.999 90.296 90.296 0 0 0-1.184 4.124l-.076.287-.02.076c-.006.027 1.931.523 1.931.523l.025-.097z"/><path d="M4.698 10.496L3.49 12.09c1.264.958 6.505 7.996 6.505 9.312h2c0-2.112-5.58-9.605-7.297-10.906z"/><path d="M18.797 15.597c.55-.361 1.312-.665 2.553-1.05.218-.068.987-.301 1.132-.346 2.55-.786 1.543-2.765 1.543-2.765 0 .046-.616.386-2.132.854l-1.136.347c-1.411.438-2.306.794-3.058 1.288-3.116 2.047-7.679 7.043-7.679 8.723h2c0-.76 4.201-5.359 6.777-7.051z"/></g><g transform="translate(2 7)"><use fill="#fff" xlink:href="#a"/><use stroke="#a50a09" mask="url(#b)" stroke-width="4" xlink:href="#a"/></g></g></g></svg>