<svg width="52" height="30" viewBox="0 0 52 30" xmlns="http://www.w3.org/2000/svg" xmlns:xlink="http://www.w3.org/1999/xlink"><defs><path d="M0 1.995C0 .893.905 0 2.002 0h31.816l6.615 7.037a84.634 84.634 0 0 0 2.825 2.839l4.256 4.039c.268.254.486.763.486 1.145v3.935A2.003 2.003 0 0 1 45.999 21H2A2.004 2.004 0 0 1 0 19.005V1.995z" id="a"/><mask id="e" x="-2" y="-2" width="52" height="25"><path fill="#fff" d="M-2-2h52v25H-2z"/><use xlink:href="#a"/></mask><circle id="b" cx="2.5" cy="2.5" r="2.5"/><mask id="f" x="-3" y="-3" width="11" height="11"><path fill="#fff" d="M-3-3H8V8H-3z"/><use xlink:href="#b"/></mask><circle id="c" cx="30.5" cy="2.5" r="2.5"/><mask id="g" x="-3" y="-3" width="11" height="11"><path fill="#fff" d="M25-3h11V8H25z"/><use xlink:href="#c"/></mask><path d="M0 3.002A3.006 3.006 0 0 1 2.999 0h29.47c1.107 0 2.62.655 3.375 1.458l5.813 6.177c.19.202.117.365-.158.365H0V3.002z" id="d"/><mask id="h" x="-2" y="-2" width="45.763" height="12"><path fill="#fff" d="M-2-2h45.763v12H-2z"/><use xlink:href="#d"/></mask></defs><g fill="none" fill-rule="evenodd"><g transform="translate(2 2)"><use fill="#fff" xlink:href="#a"/><use stroke="#a50a09" mask="url(#e)" stroke-width="4" xlink:href="#a"/></g><g transform="translate(10 22)"><use fill="#F8F8F8" xlink:href="#b"/><use stroke="#a50a09" mask="url(#f)" stroke-width="6" xlink:href="#b"/></g><g transform="translate(10 22)"><use fill="#F8F8F8" xlink:href="#c"/><use stroke="#a50a09" mask="url(#g)" stroke-width="6" xlink:href="#c"/></g><g><g transform="translate(2 2)"><use fill="#fff" xlink:href="#d"/><use stroke="#a50a09" mask="url(#h)" stroke-width="4" xlink:href="#d"/></g><path fill="#a50a09" d="M27 2h2v8h-2zM34 2h2v8h-2zM20 2h2v8h-2zM6 2h2v8H6zM13 2h2v8h-2z"/></g></g></svg>